# xmcd
# Track frame offsets:
# 150
# 13862
# 25948
# 39232
# 52370
# 66775
# 80728
# 94040
# 110497
# 127041
# 140715
# 154274
# 169878
# 182716
# 198511
#
# Disc length: 2821 seconds
# Revision: 0
# Processed by: cddbd v1.5.1PL0 Copyright (c) Steve Scherf et al.
# Submitted via: VisiTrax 2.9.10.228 - For more info visit www.synapsa.com
#
DISCID=db0b030f
DTITLE=Marianne Weber - Weber en country
DYEAR=2004
DGENRE=country
TTITLE0=Marianne Weber - Adios amigo
TTITLE1=Marianne Weber - Al die rozen mag je houden
TTITLE2=Marianne Weber - Al mijn tranen
TTITLE3=Marianne Weber - Geef me nog 'n laatste kus
TTITLE4=Marianne Weber - Ik doe wat ik wil
TTITLE5=Marianne Weber - Ik zal nooit een traan om je laten
TTITLE6=Marianne Weber - Ik zit hier heel alleen
TTITLE7=Marianne Weber - k'Wacht niet tot morgen
TTITLE8=Marianne Weber - Laat me vrij
TTITLE9=Marianne Weber - Laat me hier niet wachten
TTITLE10=Marianne Weber - Liefste voor jouw wil ik leven
TTITLE11=marianne Weber - Mijn groot geluk
TTITLE12=Marianne Weber - Sneeuwwitte vredesduif
TTITLE13=Marianne Weber - Toch hou ik zoveel vam jou
TTITLE14=Marianne Weber - Waarom loog je tegen mij
EXTD=
EXTT0=
EXTT1=
EXTT2=
EXTT3=
EXTT4=
EXTT5=
EXTT6=
EXTT7=
EXTT8=
EXTT9=
EXTT10=
EXTT11=
EXTT12=
EXTT13=
EXTT14=
PLAYORDER=
